<svg data-v-423bf9ae="" xmlns="http://www.w3.org/2000/svg" viewBox="0 0 310.87850251382315 185" class="iconAbove"><!----><!----><!----><g data-v-423bf9ae="" id="7ff625a9-6cda-463c-89bb-c88c0dc6bf01" fill="#22C4D6" transform="matrix(5.60747673547115,0,0,5.60747673547115,-3.1401905743552163,107.2326088664063)"><path d="M5.39 13.71L5.39 13.71Q3.99 13.71 2.89 13.08L2.89 13.08L2.89 13.08Q1.79 12.45 1.18 11.29L1.18 11.29L1.18 11.29Q0.56 10.14 0.56 8.61L0.56 8.61L0.56 8.61Q0.56 7.08 1.18 5.93L1.18 5.93L1.18 5.93Q1.79 4.77 2.89 4.14L2.89 4.14L2.89 4.14Q3.99 3.51 5.39 3.51L5.39 3.51L5.39 3.51Q6.79 3.51 7.89 4.14L7.89 4.14L7.89 4.14Q8.99 4.77 9.60 5.93L9.60 5.93L9.60 5.93Q10.22 7.08 10.22 8.61L10.22 8.61L10.22 8.61Q10.22 10.14 9.60 11.29L9.60 11.29L9.60 11.29Q8.99 12.45 7.89 13.08L7.89 13.08L7.89 13.08Q6.79 13.71 5.39 13.71L5.39 13.71ZM5.39 12.42L5.39 12.42Q6.48 12.42 7.25 11.92L7.25 11.92L7.25 11.92Q8.02 11.42 8.41 10.56L8.41 10.56L8.41 10.56Q8.79 9.70 8.79 8.61L8.79 8.61L8.79 8.61Q8.79 7.52 8.41 6.66L8.41 6.66L8.41 6.66Q8.02 5.80 7.25 5.30L7.25 5.30L7.25 5.30Q6.48 4.80 5.39 4.80L5.39 4.80L5.39 4.80Q4.30 4.80 3.53 5.30L3.53 5.30L3.53 5.30Q2.76 5.80 2.37 6.66L2.37 6.66L2.37 6.66Q1.99 7.52 1.99 8.61L1.99 8.61L1.99 8.61Q1.99 9.70 2.37 10.56L2.37 10.56L2.37 10.56Q2.76 11.42 3.53 11.92L3.53 11.92L3.53 11.92Q4.30 12.42 5.39 12.42L5.39 12.42ZM13.40 13.65L13.40 13.65Q12.47 13.65 12.05 13.17L12.05 13.17L12.05 13.17Q11.62 12.70 11.62 12.00L11.62 12.00L11.62 3.01L12.88 3.01L12.88 11.27L12.88 11.27Q12.88 11.89 12.96 12.17L12.96 12.17L12.96 12.17Q13.03 12.45 13.26 12.54L13.26 12.54L13.26 12.54Q13.48 12.64 13.99 12.64L13.99 12.64L13.80 13.65L13.40 13.65ZM19.75 3.01L21.01 3.01L21.01 13.51L19.89 13.51L19.75 12.67L19.75 12.67Q19.40 13.15 18.84 13.40L18.84 13.40L18.84 13.40Q18.28 13.65 17.65 13.65L17.65 13.65L17.65 13.65Q16.79 13.65 16.07 13.17L16.07 13.17L16.07 13.17Q15.36 12.70 14.95 11.89L14.95 11.89L14.95 11.89Q14.53 11.07 14.53 10.09L14.53 10.09L14.53 10.09Q14.53 9.14 14.92 8.32L14.92 8.32L14.92 8.32Q15.30 7.49 16.02 7L16.02 7L16.02 7Q16.73 6.51 17.65 6.51L17.65 6.51L17.65 6.51Q18.27 6.51 18.82 6.73L18.82 6.73L18.82 6.73Q19.36 6.96 19.75 7.42L19.75 7.42L19.75 3.01ZM17.88 12.53L17.88 12.53Q18.38 12.53 18.84 12.27L18.84 12.27L18.84 12.27Q19.31 12.01 19.60 11.47L19.60 11.47L19.60 11.47Q19.89 10.92 19.89 10.09L19.89 10.09L19.89 10.09Q19.89 9.32 19.60 8.76L19.60 8.76L19.60 8.76Q19.31 8.20 18.84 7.92L18.84 7.92L18.84 7.92Q18.37 7.63 17.88 7.63L17.88 7.63L17.88 7.63Q16.93 7.63 16.37 8.32L16.37 8.32L16.37 8.32Q15.82 9.02 15.82 10.09L15.82 10.09L15.82 10.09Q15.82 11.13 16.38 11.83L16.38 11.83L16.38 11.83Q16.94 12.53 17.88 12.53L17.88 12.53ZM22.71 5.11L22.71 3.71L23.97 3.71L23.97 5.11L22.71 5.11ZM22.71 13.51L22.71 6.65L23.97 6.65L23.97 13.51L22.71 13.51ZM29.06 6.51L29.06 6.51Q31.86 6.51 31.86 9.73L31.86 9.73L31.86 13.51L30.60 13.51L30.60 9.73L30.60 9.73Q30.60 8.62 30.19 8.13L30.19 8.13L30.19 8.13Q29.78 7.63 28.81 7.63L28.81 7.63L28.81 7.63Q28.20 7.63 27.69 7.85L27.69 7.85L27.69 7.85Q27.19 8.08 26.94 8.53L26.94 8.53L26.94 13.51L25.68 13.51L25.68 6.65L26.66 6.65L26.80 7.38L26.80 7.38Q27.34 6.89 27.89 6.70L27.89 6.70L27.89 6.70Q28.45 6.51 29.06 6.51L29.06 6.51ZM35.87 13.65L35.87 13.65Q34.96 13.65 34.52 13.17L34.52 13.17L34.52 13.17Q34.08 12.70 34.08 12.01L34.08 12.01L34.08 7.63L32.90 7.63L33.01 6.65L34.08 6.65L34.08 4.96L35.34 4.83L35.34 6.65L37.14 6.65L37.14 7.63L35.34 7.63L35.34 11.24L35.34 11.24Q35.34 11.96 35.42 12.22L35.42 12.22L35.42 12.22Q35.50 12.49 35.78 12.56L35.78 12.56L35.78 12.56Q36.05 12.64 36.78 12.64L36.78 12.64L37.10 12.64L37.00 13.65L35.87 13.65ZM41.51 13.65L41.51 13.65Q40.33 13.65 39.50 13.17L39.50 13.17L39.50 13.17Q38.67 12.68 38.23 11.86L38.23 11.86L38.23 11.86Q37.80 11.03 37.80 10.02L37.80 10.02L37.80 10.02Q37.80 9.06 38.20 8.25L38.20 8.25L38.20 8.25Q38.60 7.45 39.36 6.98L39.36 6.98L39.36 6.98Q40.12 6.51 41.16 6.51L41.16 6.51L41.16 6.51Q42.48 6.51 43.30 7.28L43.30 7.28L43.30 7.28Q44.11 8.05 44.11 9.41L44.11 9.41L44.11 9.41Q44.11 9.76 44.06 10.08L44.06 10.08L39.09 10.08L39.09 10.08Q39.21 11.41 39.90 11.97L39.90 11.97L39.90 11.97Q40.59 12.53 41.66 12.53L41.66 12.53L41.66 12.53Q42.74 12.53 43.64 12.12L43.64 12.12L43.81 13.12L43.81 13.12Q42.62 13.65 41.51 13.65L41.51 13.65ZM39.20 9.21L42.81 9.21L42.81 9.21Q42.81 8.47 42.39 8.05L42.39 8.05L42.39 8.05Q41.97 7.63 41.13 7.63L41.13 7.63L41.13 7.63Q40.32 7.63 39.86 8.03L39.86 8.03L39.86 8.03Q39.40 8.43 39.20 9.21L39.20 9.21ZM45.39 13.51L45.39 6.65L46.42 6.65L46.58 7.78L46.58 7.78Q47.11 7.13 47.59 6.82L47.59 6.82L47.59 6.82Q48.08 6.51 48.61 6.51L48.61 6.51L48.61 6.51Q48.78 6.51 48.93 6.55L48.93 6.55L48.80 7.94L48.80 7.94Q48.62 7.90 48.38 7.90L48.38 7.90L48.38 7.90Q47.87 7.90 47.40 8.13L47.40 8.13L47.40 8.13Q46.94 8.36 46.73 8.67L46.73 8.67L46.73 13.51L45.39 13.51ZM53.20 6.51L53.20 6.51Q56 6.51 56 9.73L56 9.73L56 13.51L54.74 13.51L54.74 9.73L54.74 9.73Q54.74 8.62 54.33 8.13L54.33 8.13L54.33 8.13Q53.91 7.63 52.95 7.63L52.95 7.63L52.95 7.63Q52.33 7.63 51.83 7.85L51.83 7.85L51.83 7.85Q51.32 8.08 51.07 8.53L51.07 8.53L51.07 13.51L49.81 13.51L49.81 6.65L50.79 6.65L50.93 7.38L50.93 7.38Q51.48 6.89 52.03 6.70L52.03 6.70L52.03 6.70Q52.58 6.51 53.20 6.51L53.20 6.51Z"></path></g><!----><g data-v-423bf9ae="" id="41f9b97e-9a2f-4df4-95c4-fd8c4bf09439" transform="matrix(1.1111111111111112,0,0,1.1111111111111112,106.38842438921952,0.44444444444444287)" stroke="none" fill="#22C4D6"><circle cx="44.649" cy="50.001" r="8.07"></circle><path d="M22.954 50.001C22.954 22.387 32.667 0 44.649 0c11.985 0 21.7 22.387 21.7 50.001 0 27.614-9.715 49.999-21.7 49.999-11.982 0-21.695-22.385-21.695-49.999zm21.695 45.766c10.969 0 19.86-20.489 19.86-45.765 0-25.277-8.891-45.765-19.86-45.765-10.967 0-19.858 20.488-19.858 45.765 0 25.275 8.892 45.765 19.858 45.765z"></path><path d="M55.5 68.791C31.584 82.6 7.34 85.378 1.349 75.001-4.642 64.623 9.887 45.017 33.802 31.21c23.915-13.806 48.159-16.588 54.15-6.209 5.992 10.377-8.538 29.983-32.452 43.79zm28.786-41.673c-5.484-9.499-27.677-6.953-49.564 5.684C12.832 45.438-.468 63.385 5.016 72.884 10.5 82.382 32.691 79.837 54.58 67.2s35.19-30.583 29.706-40.082z"></path><path d="M55.5 31.21c23.913 13.807 38.443 33.413 32.451 43.791-5.991 10.377-30.235 7.599-54.15-6.21C9.887 54.984-4.642 35.376 1.349 25.001 7.34 14.622 31.584 17.404 55.5 31.21zM5.016 27.118C-.468 36.617 12.832 54.561 34.722 67.2c21.887 12.637 44.08 15.182 49.564 5.684 5.484-9.499-7.816-27.445-29.706-40.082C32.691 20.164 10.5 17.62 5.016 27.118z"></path></g><!----></svg>