<svg data-v-423bf9ae="" xmlns="http://www.w3.org/2000/svg" viewBox="0 0 431 112" class="iconLeftSlogan"><!----><!----><!----><g data-v-423bf9ae="" id="e6040d0d-e7f2-48ce-abfd-861fb1ca9bc6" fill="#22C4D6" transform="matrix(5.60747673547115,0,0,5.60747673547115,116.08290055113306,-16.87850563554683)"><path d="M5.39 13.71L5.39 13.71Q3.99 13.71 2.89 13.08L2.89 13.08L2.89 13.08Q1.79 12.45 1.18 11.29L1.18 11.29L1.18 11.29Q0.56 10.14 0.56 8.61L0.56 8.61L0.56 8.61Q0.56 7.08 1.18 5.93L1.18 5.93L1.18 5.93Q1.79 4.77 2.89 4.14L2.89 4.14L2.89 4.14Q3.99 3.51 5.39 3.51L5.39 3.51L5.39 3.51Q6.79 3.51 7.89 4.14L7.89 4.14L7.89 4.14Q8.99 4.77 9.60 5.93L9.60 5.93L9.60 5.93Q10.22 7.08 10.22 8.61L10.22 8.61L10.22 8.61Q10.22 10.14 9.60 11.29L9.60 11.29L9.60 11.29Q8.99 12.45 7.89 13.08L7.89 13.08L7.89 13.08Q6.79 13.71 5.39 13.71L5.39 13.71ZM5.39 12.42L5.39 12.42Q6.48 12.42 7.25 11.92L7.25 11.92L7.25 11.92Q8.02 11.42 8.41 10.56L8.41 10.56L8.41 10.56Q8.79 9.70 8.79 8.61L8.79 8.61L8.79 8.61Q8.79 7.52 8.41 6.66L8.41 6.66L8.41 6.66Q8.02 5.80 7.25 5.30L7.25 5.30L7.25 5.30Q6.48 4.80 5.39 4.80L5.39 4.80L5.39 4.80Q4.30 4.80 3.53 5.30L3.53 5.30L3.53 5.30Q2.76 5.80 2.37 6.66L2.37 6.66L2.37 6.66Q1.99 7.52 1.99 8.61L1.99 8.61L1.99 8.61Q1.99 9.70 2.37 10.56L2.37 10.56L2.37 10.56Q2.76 11.42 3.53 11.92L3.53 11.92L3.53 11.92Q4.30 12.42 5.39 12.42L5.39 12.42ZM13.40 13.65L13.40 13.65Q12.47 13.65 12.05 13.17L12.05 13.17L12.05 13.17Q11.62 12.70 11.62 12.00L11.62 12.00L11.62 3.01L12.88 3.01L12.88 11.27L12.88 11.27Q12.88 11.89 12.96 12.17L12.96 12.17L12.96 12.17Q13.03 12.45 13.26 12.54L13.26 12.54L13.26 12.54Q13.48 12.64 13.99 12.64L13.99 12.64L13.80 13.65L13.40 13.65ZM19.75 3.01L21.01 3.01L21.01 13.51L19.89 13.51L19.75 12.67L19.75 12.67Q19.40 13.15 18.84 13.40L18.84 13.40L18.84 13.40Q18.28 13.65 17.65 13.65L17.65 13.65L17.65 13.65Q16.79 13.65 16.07 13.17L16.07 13.17L16.07 13.17Q15.36 12.70 14.95 11.89L14.95 11.89L14.95 11.89Q14.53 11.07 14.53 10.09L14.53 10.09L14.53 10.09Q14.53 9.14 14.92 8.32L14.92 8.32L14.92 8.32Q15.30 7.49 16.02 7L16.02 7L16.02 7Q16.73 6.51 17.65 6.51L17.65 6.51L17.65 6.51Q18.27 6.51 18.82 6.73L18.82 6.73L18.82 6.73Q19.36 6.96 19.75 7.42L19.75 7.42L19.75 3.01ZM17.88 12.53L17.88 12.53Q18.38 12.53 18.84 12.27L18.84 12.27L18.84 12.27Q19.31 12.01 19.60 11.47L19.60 11.47L19.60 11.47Q19.89 10.92 19.89 10.09L19.89 10.09L19.89 10.09Q19.89 9.32 19.60 8.76L19.60 8.76L19.60 8.76Q19.31 8.20 18.84 7.92L18.84 7.92L18.84 7.92Q18.37 7.63 17.88 7.63L17.88 7.63L17.88 7.63Q16.93 7.63 16.37 8.32L16.37 8.32L16.37 8.32Q15.82 9.02 15.82 10.09L15.82 10.09L15.82 10.09Q15.82 11.13 16.38 11.83L16.38 11.83L16.38 11.83Q16.94 12.53 17.88 12.53L17.88 12.53ZM22.71 5.11L22.71 3.71L23.97 3.71L23.97 5.11L22.71 5.11ZM22.71 13.51L22.71 6.65L23.97 6.65L23.97 13.51L22.71 13.51ZM29.06 6.51L29.06 6.51Q31.86 6.51 31.86 9.73L31.86 9.73L31.86 13.51L30.60 13.51L30.60 9.73L30.60 9.73Q30.60 8.62 30.19 8.13L30.19 8.13L30.19 8.13Q29.78 7.63 28.81 7.63L28.81 7.63L28.81 7.63Q28.20 7.63 27.69 7.85L27.69 7.85L27.69 7.85Q27.19 8.08 26.94 8.53L26.94 8.53L26.94 13.51L25.68 13.51L25.68 6.65L26.66 6.65L26.80 7.38L26.80 7.38Q27.34 6.89 27.89 6.70L27.89 6.70L27.89 6.70Q28.45 6.51 29.06 6.51L29.06 6.51ZM35.87 13.65L35.87 13.65Q34.96 13.65 34.52 13.17L34.52 13.17L34.52 13.17Q34.08 12.70 34.08 12.01L34.08 12.01L34.08 7.63L32.90 7.63L33.01 6.65L34.08 6.65L34.08 4.96L35.34 4.83L35.34 6.65L37.14 6.65L37.14 7.63L35.34 7.63L35.34 11.24L35.34 11.24Q35.34 11.96 35.42 12.22L35.42 12.22L35.42 12.22Q35.50 12.49 35.78 12.56L35.78 12.56L35.78 12.56Q36.05 12.64 36.78 12.64L36.78 12.64L37.10 12.64L37.00 13.65L35.87 13.65ZM41.51 13.65L41.51 13.65Q40.33 13.65 39.50 13.17L39.50 13.17L39.50 13.17Q38.67 12.68 38.23 11.86L38.23 11.86L38.23 11.86Q37.80 11.03 37.80 10.02L37.80 10.02L37.80 10.02Q37.80 9.06 38.20 8.25L38.20 8.25L38.20 8.25Q38.60 7.45 39.36 6.98L39.36 6.98L39.36 6.98Q40.12 6.51 41.16 6.51L41.16 6.51L41.16 6.51Q42.48 6.51 43.30 7.28L43.30 7.28L43.30 7.28Q44.11 8.05 44.11 9.41L44.11 9.41L44.11 9.41Q44.11 9.76 44.06 10.08L44.06 10.08L39.09 10.08L39.09 10.08Q39.21 11.41 39.90 11.97L39.90 11.97L39.90 11.97Q40.59 12.53 41.66 12.53L41.66 12.53L41.66 12.53Q42.74 12.53 43.64 12.12L43.64 12.12L43.81 13.12L43.81 13.12Q42.62 13.65 41.51 13.65L41.51 13.65ZM39.20 9.21L42.81 9.21L42.81 9.21Q42.81 8.47 42.39 8.05L42.39 8.05L42.39 8.05Q41.97 7.63 41.13 7.63L41.13 7.63L41.13 7.63Q40.32 7.63 39.86 8.03L39.86 8.03L39.86 8.03Q39.40 8.43 39.20 9.21L39.20 9.21ZM45.39 13.51L45.39 6.65L46.42 6.65L46.58 7.78L46.58 7.78Q47.11 7.13 47.59 6.82L47.59 6.82L47.59 6.82Q48.08 6.51 48.61 6.51L48.61 6.51L48.61 6.51Q48.78 6.51 48.93 6.55L48.93 6.55L48.80 7.94L48.80 7.94Q48.62 7.90 48.38 7.90L48.38 7.90L48.38 7.90Q47.87 7.90 47.40 8.13L47.40 8.13L47.40 8.13Q46.94 8.36 46.73 8.67L46.73 8.67L46.73 13.51L45.39 13.51ZM53.20 6.51L53.20 6.51Q56 6.51 56 9.73L56 9.73L56 13.51L54.74 13.51L54.74 9.73L54.74 9.73Q54.74 8.62 54.33 8.13L54.33 8.13L54.33 8.13Q53.91 7.63 52.95 7.63L52.95 7.63L52.95 7.63Q52.33 7.63 51.83 7.85L51.83 7.85L51.83 7.85Q51.32 8.08 51.07 8.53L51.07 8.53L51.07 13.51L49.81 13.51L49.81 6.65L50.79 6.65L50.93 7.38L50.93 7.38Q51.48 6.89 52.03 6.70L52.03 6.70L52.03 6.70Q52.58 6.51 53.20 6.51L53.20 6.51Z"></path></g><!----><g data-v-423bf9ae="" id="c6ccd111-edf3-4ba2-8701-52c9f1af25e0" transform="matrix(1.1111111111111112,0,0,1.1111111111111112,0.38842820391679567,0.44444444444444287)" stroke="none" fill="#22C4D6"><circle cx="44.649" cy="50.001" r="8.07"></circle><path d="M22.954 50.001C22.954 22.387 32.667 0 44.649 0c11.985 0 21.7 22.387 21.7 50.001 0 27.614-9.715 49.999-21.7 49.999-11.982 0-21.695-22.385-21.695-49.999zm21.695 45.766c10.969 0 19.86-20.489 19.86-45.765 0-25.277-8.891-45.765-19.86-45.765-10.967 0-19.858 20.488-19.858 45.765 0 25.275 8.892 45.765 19.858 45.765z"></path><path d="M55.5 68.791C31.584 82.6 7.34 85.378 1.349 75.001-4.642 64.623 9.887 45.017 33.802 31.21c23.915-13.806 48.159-16.588 54.15-6.209 5.992 10.377-8.538 29.983-32.452 43.79zm28.786-41.673c-5.484-9.499-27.677-6.953-49.564 5.684C12.832 45.438-.468 63.385 5.016 72.884 10.5 82.382 32.691 79.837 54.58 67.2s35.19-30.583 29.706-40.082z"></path><path d="M55.5 31.21c23.913 13.807 38.443 33.413 32.451 43.791-5.991 10.377-30.235 7.599-54.15-6.21C9.887 54.984-4.642 35.376 1.349 25.001 7.34 14.622 31.584 17.404 55.5 31.21zM5.016 27.118C-.468 36.617 12.832 54.561 34.722 67.2c21.887 12.637 44.08 15.182 49.564 5.684 5.484-9.499-7.816-27.445-29.706-40.082C32.691 20.164 10.5 17.62 5.016 27.118z"></path></g><!----><g data-v-423bf9ae="" id="a3a010e5-5662-444c-b77f-7e575578809f" fill="#22C4D6" transform="matrix(0.6272137821593738,0,0,0.6272137821593738,118.78403054368711,57.62285893178364)"><path d="M12.57 4.44C12.75 4.42 12.85 4.34 12.85 4.19L12.85 3.92L11.68 3.92L11.17 3.92C11.10 3.92 11.06 3.92 11.02 3.93C10.98 3.95 10.95 3.99 10.91 4.05L7.01 10.92C6.97 10.99 6.94 11.06 6.92 11.13C6.89 11.20 6.86 11.28 6.83 11.35C6.78 11.20 6.72 11.06 6.65 10.93L2.65 4.05C2.60 3.99 2.58 3.95 2.53 3.93C2.49 3.92 2.45 3.92 2.38 3.92L1.89 3.92L0.70 3.92L0.70 4.19C0.70 4.34 0.80 4.42 0.98 4.44L1.12 4.44C1.19 4.44 1.29 4.45 1.43 4.45C1.57 4.45 1.72 4.47 1.89 4.47L1.89 13.26C1.72 13.26 1.57 13.27 1.43 13.27C1.29 13.27 1.19 13.29 1.12 13.29L0.98 13.29C0.80 13.30 0.70 13.38 0.70 13.54L0.70 13.82L1.89 13.82L2.51 13.82L3.72 13.82L3.72 13.54C3.72 13.38 3.63 13.30 3.44 13.29L3.30 13.29C3.23 13.29 3.12 13.27 2.98 13.27C2.84 13.27 2.67 13.26 2.51 13.26L2.51 5.38C2.51 5.25 2.51 5.12 2.49 4.98L6.50 11.91C6.57 12.04 6.66 12.10 6.78 12.10L6.89 12.10C7.01 12.10 7.10 12.04 7.17 11.91L11.06 4.98C11.05 5.12 11.05 5.25 11.05 5.38L11.05 13.26C10.88 13.26 10.71 13.27 10.57 13.27C10.43 13.27 10.32 13.29 10.25 13.29L10.11 13.29C9.93 13.30 9.83 13.38 9.83 13.54L9.83 13.82L11.05 13.82L11.68 13.82L12.85 13.82L12.85 13.54C12.85 13.38 12.75 13.30 12.57 13.29L12.45 13.29C12.38 13.29 12.26 13.27 12.12 13.27C11.98 13.27 11.84 13.26 11.68 13.26L11.68 4.47C11.84 4.47 11.98 4.45 12.12 4.45C12.26 4.45 12.38 4.44 12.45 4.44ZM29.33 3.92L29.26 3.92L28.70 3.92L28.59 3.92L27.19 3.92L27.19 4.19C27.19 4.34 27.29 4.42 27.47 4.44L27.58 4.44C27.64 4.44 27.71 4.45 27.82 4.45C27.93 4.45 28.06 4.47 28.20 4.47L25.61 8.64C25.54 8.75 25.48 8.85 25.44 8.95C25.40 9.04 25.35 9.16 25.31 9.25C25.27 9.16 25.23 9.04 25.19 8.95C25.14 8.85 25.09 8.75 25.02 8.64L22.41 4.47C22.55 4.47 22.68 4.45 22.79 4.45C22.90 4.45 22.99 4.44 23.04 4.44L23.14 4.44C23.32 4.42 23.42 4.34 23.42 4.19L23.42 3.92L22.02 3.92L21.91 3.92L21.35 3.92L21.28 3.92L20.83 3.92L20.83 4.19C20.83 4.34 20.93 4.42 21.11 4.44C21.35 4.45 21.53 4.47 21.63 4.47L24.95 9.73L24.95 13.26C24.78 13.26 24.63 13.27 24.49 13.27C24.35 13.27 24.25 13.29 24.18 13.29L24.05 13.29C23.87 13.30 23.77 13.38 23.77 13.54L23.77 13.82L24.95 13.82L25.66 13.82L26.84 13.82L26.84 13.54C26.84 13.38 26.75 13.30 26.57 13.29L26.43 13.29C26.36 13.29 26.26 13.27 26.12 13.27C25.98 13.27 25.83 13.26 25.66 13.26L25.66 9.73L28.98 4.47C29.09 4.47 29.26 4.45 29.50 4.44C29.68 4.42 29.78 4.34 29.78 4.19L29.78 3.92ZM53.83 9.32L53.83 9.72C53.83 9.76 53.86 9.80 53.89 9.83C53.91 9.86 53.96 9.87 54.01 9.87L55.92 9.87L55.92 12.54C55.69 12.67 55.47 12.78 55.26 12.88C55.05 12.98 54.81 13.08 54.57 13.15C54.33 13.22 54.07 13.27 53.79 13.30C53.51 13.33 53.20 13.34 52.86 13.34C52.25 13.34 51.69 13.24 51.18 13.03C50.68 12.82 50.25 12.53 49.88 12.15C49.52 11.77 49.24 11.30 49.04 10.74C48.85 10.18 48.73 9.56 48.73 8.86C48.73 8.18 48.85 7.56 49.04 7.01C49.24 6.47 49.52 5.99 49.88 5.61C50.25 5.24 50.69 4.94 51.21 4.73C51.73 4.52 52.30 4.42 52.95 4.42C54.12 4.42 55.06 4.58 55.75 4.90C55.79 5.81 55.82 6.31 55.82 6.41C55.83 6.64 55.93 6.75 56.13 6.75L56.46 6.75L56.46 4.51C56.03 4.31 55.47 4.14 54.77 4.00C54.07 3.86 53.48 3.81 52.98 3.81C52.22 3.81 51.53 3.92 50.92 4.16C50.30 4.40 49.78 4.75 49.35 5.18C48.92 5.61 48.59 6.15 48.36 6.78C48.12 7.39 48.01 8.09 48.01 8.86C48.01 9.63 48.12 10.32 48.36 10.95C48.59 11.58 48.92 12.10 49.34 12.54C49.76 12.99 50.27 13.33 50.86 13.57C51.45 13.80 52.09 13.93 52.81 13.93C53.23 13.93 53.61 13.90 53.96 13.86C54.31 13.80 54.63 13.73 54.94 13.65C55.24 13.55 55.52 13.44 55.79 13.30C56.06 13.16 56.31 13.01 56.56 12.84L56.56 9.32ZM74.23 8.86C74.23 8.11 74.10 7.41 73.88 6.79C73.65 6.17 73.33 5.64 72.91 5.19C72.49 4.75 72.00 4.40 71.43 4.16C70.85 3.92 70.20 3.79 69.50 3.79C68.80 3.79 68.17 3.92 67.59 4.16C67.02 4.40 66.51 4.75 66.09 5.19C65.67 5.64 65.35 6.17 65.13 6.79C64.90 7.41 64.78 8.11 64.78 8.86C64.78 9.63 64.90 10.33 65.13 10.95C65.35 11.56 65.67 12.10 66.09 12.54C66.51 12.99 67.02 13.33 67.59 13.57C68.17 13.80 68.80 13.93 69.50 13.93C70.20 13.93 70.85 13.80 71.43 13.57C72.00 13.33 72.49 12.99 72.91 12.54C73.33 12.10 73.65 11.56 73.88 10.95C74.10 10.33 74.23 9.63 74.23 8.86ZM73.47 8.86C73.47 9.56 73.39 10.18 73.19 10.72C73.00 11.27 72.73 11.75 72.38 12.12C72.03 12.50 71.61 12.81 71.12 13.01C70.63 13.20 70.10 13.30 69.50 13.30C68.91 13.30 68.38 13.20 67.89 13.01C67.40 12.81 66.98 12.50 66.63 12.12C66.28 11.75 66.00 11.27 65.80 10.72C65.60 10.18 65.52 9.56 65.52 8.86C65.52 8.18 65.60 7.55 65.80 7.00C66.00 6.45 66.28 5.98 66.63 5.60C66.98 5.22 67.40 4.91 67.89 4.72C68.38 4.52 68.91 4.41 69.50 4.41C70.10 4.41 70.63 4.52 71.12 4.72C71.61 4.91 72.03 5.22 72.38 5.60C72.73 5.98 73.00 6.45 73.19 7.00C73.39 7.55 73.47 8.18 73.47 8.86ZM91.50 6.80C91.28 6.19 90.96 5.68 90.54 5.25C90.12 4.82 89.63 4.48 89.05 4.26C88.48 4.03 87.82 3.92 87.12 3.92L83.69 3.92L82.50 3.92L82.50 4.19C82.50 4.34 82.60 4.42 82.78 4.44L82.92 4.44C82.99 4.44 83.09 4.45 83.23 4.45C83.37 4.45 83.52 4.47 83.69 4.47L83.69 13.26C83.52 13.26 83.37 13.27 83.23 13.27C83.09 13.27 82.99 13.29 82.92 13.29L82.78 13.29C82.60 13.30 82.50 13.38 82.50 13.54L82.50 13.82L83.69 13.82L87.12 13.82C87.82 13.82 88.48 13.71 89.05 13.48C89.63 13.26 90.12 12.92 90.54 12.49C90.96 12.05 91.28 11.54 91.50 10.92C91.73 10.30 91.85 9.63 91.85 8.86C91.85 8.11 91.73 7.42 91.50 6.80ZM90.82 10.72C90.62 11.27 90.37 11.72 90.02 12.10C89.67 12.47 89.25 12.75 88.76 12.95C88.27 13.15 87.72 13.24 87.12 13.24L84.41 13.24L84.41 4.49L87.12 4.49C87.72 4.49 88.27 4.59 88.76 4.79C89.25 4.98 89.67 5.26 90.02 5.64C90.37 6.02 90.62 6.47 90.82 7.01C91.01 7.56 91.11 8.18 91.11 8.86C91.11 9.56 91.01 10.18 90.82 10.72ZM100.02 13.29C100.02 13.47 100.07 13.61 100.20 13.73C100.32 13.86 100.48 13.93 100.66 13.93C100.74 13.93 100.83 13.90 100.91 13.87C101.00 13.85 101.05 13.79 101.11 13.73C101.16 13.68 101.22 13.62 101.25 13.54C101.28 13.45 101.30 13.38 101.30 13.29C101.30 13.20 101.28 13.12 101.25 13.03C101.22 12.95 101.16 12.88 101.11 12.82C101.05 12.77 101.00 12.71 100.91 12.68C100.83 12.66 100.74 12.63 100.66 12.63C100.56 12.63 100.48 12.66 100.39 12.68C100.31 12.71 100.25 12.77 100.20 12.82C100.14 12.88 100.09 12.95 100.06 13.03C100.03 13.12 100.02 13.20 100.02 13.29ZM128.46 3.92L128.39 3.92L127.83 3.92L127.72 3.92L126.32 3.92L126.32 4.19C126.32 4.34 126.42 4.42 126.60 4.44L126.71 4.44C126.77 4.44 126.84 4.45 126.95 4.45C127.06 4.45 127.19 4.47 127.33 4.47L124.74 8.64C124.67 8.75 124.61 8.85 124.57 8.95C124.53 9.04 124.49 9.16 124.45 9.25C124.40 9.16 124.36 9.04 124.32 8.95C124.28 8.85 124.22 8.75 124.15 8.64L121.55 4.47C121.69 4.47 121.81 4.45 121.93 4.45C122.04 4.45 122.12 4.44 122.18 4.44L122.28 4.44C122.46 4.42 122.56 4.34 122.56 4.19L122.56 3.92L121.16 3.92L121.04 3.92L120.48 3.92L120.41 3.92L119.97 3.92L119.97 4.19C119.97 4.34 120.06 4.42 120.25 4.44C120.48 4.45 120.67 4.47 120.76 4.47L124.08 9.73L124.08 13.26C123.91 13.26 123.76 13.27 123.62 13.27C123.48 13.27 123.38 13.29 123.31 13.29L123.19 13.29C123.00 13.30 122.91 13.38 122.91 13.54L122.91 13.82L124.08 13.82L124.80 13.82L125.97 13.82L125.97 13.54C125.97 13.38 125.89 13.30 125.71 13.29L125.57 13.29C125.50 13.29 125.40 13.27 125.26 13.27C125.12 13.27 124.96 13.26 124.80 13.26L124.80 9.73L128.11 4.47C128.23 4.47 128.39 4.45 128.63 4.44C128.81 4.42 128.91 4.34 128.91 4.19L128.91 3.92ZM145.66 8.86C145.66 8.11 145.53 7.41 145.31 6.79C145.08 6.17 144.76 5.64 144.34 5.19C143.92 4.75 143.43 4.40 142.86 4.16C142.28 3.92 141.62 3.79 140.92 3.79C140.22 3.79 139.59 3.92 139.02 4.16C138.45 4.40 137.94 4.75 137.52 5.19C137.10 5.64 136.78 6.17 136.56 6.79C136.33 7.41 136.21 8.11 136.21 8.86C136.21 9.63 136.33 10.33 136.56 10.95C136.78 11.56 137.10 12.10 137.52 12.54C137.94 12.99 138.45 13.33 139.02 13.57C139.59 13.80 140.22 13.93 140.92 13.93C141.62 13.93 142.28 13.80 142.86 13.57C143.43 13.33 143.92 12.99 144.34 12.54C144.76 12.10 145.08 11.56 145.31 10.95C145.53 10.33 145.66 9.63 145.66 8.86ZM144.90 8.86C144.90 9.56 144.82 10.18 144.62 10.72C144.42 11.27 144.16 11.75 143.81 12.12C143.46 12.50 143.04 12.81 142.55 13.01C142.06 13.20 141.53 13.30 140.92 13.30C140.34 13.30 139.80 13.20 139.31 13.01C138.82 12.81 138.40 12.50 138.05 12.12C137.70 11.75 137.42 11.27 137.23 10.72C137.03 10.18 136.95 9.56 136.95 8.86C136.95 8.18 137.03 7.55 137.23 7.00C137.42 6.45 137.70 5.98 138.05 5.60C138.40 5.22 138.82 4.91 139.31 4.72C139.80 4.52 140.34 4.41 140.92 4.41C141.53 4.41 142.06 4.52 142.55 4.72C143.04 4.91 143.46 5.22 143.81 5.60C144.16 5.98 144.42 6.45 144.62 7.00C144.82 7.55 144.90 8.18 144.90 8.86ZM161.90 3.92L161.18 3.92L159.82 3.92L159.82 4.19C159.82 4.34 159.92 4.42 160.10 4.44L160.27 4.44C160.37 4.44 160.51 4.45 160.68 4.45C160.85 4.45 161.01 4.47 161.18 4.47L161.18 10.04C161.18 10.50 161.11 10.92 160.97 11.33C160.83 11.73 160.64 12.08 160.37 12.38C160.10 12.67 159.80 12.89 159.42 13.06C159.04 13.23 158.62 13.31 158.14 13.31C157.67 13.31 157.23 13.23 156.86 13.06C156.48 12.89 156.16 12.66 155.90 12.36C155.64 12.07 155.46 11.72 155.32 11.33C155.18 10.93 155.11 10.50 155.11 10.04L155.11 4.47C155.27 4.47 155.44 4.45 155.61 4.45C155.78 4.45 155.92 4.44 156.02 4.44L156.18 4.44C156.37 4.42 156.46 4.34 156.46 4.19L156.46 3.92L155.11 3.92L154.39 3.92L153.22 3.92L153.22 4.19C153.22 4.34 153.30 4.42 153.48 4.44L153.62 4.44C153.69 4.44 153.79 4.45 153.93 4.45C154.07 4.45 154.22 4.47 154.39 4.47L154.39 10.04C154.39 10.58 154.48 11.09 154.64 11.56C154.81 12.04 155.06 12.46 155.39 12.81C155.71 13.16 156.11 13.44 156.58 13.64C157.04 13.83 157.57 13.93 158.14 13.93C158.72 13.93 159.24 13.83 159.70 13.64C160.16 13.44 160.57 13.16 160.89 12.81C161.21 12.46 161.46 12.04 161.63 11.56C161.80 11.09 161.90 10.58 161.90 10.04L161.90 4.47C162.06 4.47 162.20 4.45 162.34 4.45C162.48 4.45 162.60 4.44 162.67 4.44L162.79 4.44C162.97 4.42 163.07 4.34 163.07 4.19L163.07 3.92ZM171.96 3.91L171.37 3.91L171.37 5.95L171.44 7.03C171.46 7.11 171.47 7.17 171.51 7.21C171.56 7.25 171.60 7.28 171.67 7.28C171.75 7.28 171.81 7.25 171.84 7.21C171.86 7.17 171.89 7.11 171.91 7.03L171.96 5.95ZM188.65 13.29L188.55 13.29L188.37 13.29C188.29 13.29 188.20 13.27 188.12 13.27L185.15 9.53C185.07 9.42 184.95 9.32 184.84 9.25C185.28 9.21 185.67 9.11 186.02 8.96C186.37 8.81 186.65 8.61 186.90 8.37C187.14 8.13 187.33 7.85 187.46 7.55C187.59 7.24 187.66 6.89 187.66 6.51C187.66 5.66 187.38 5.03 186.82 4.58C186.26 4.14 185.40 3.92 184.25 3.92L181.85 3.92L180.67 3.92L180.67 4.19C180.67 4.34 180.75 4.42 180.94 4.44L181.08 4.44C181.15 4.44 181.24 4.45 181.38 4.45C181.52 4.45 181.68 4.47 181.85 4.47L181.85 13.26C181.68 13.26 181.52 13.27 181.38 13.27C181.24 13.27 181.15 13.29 181.08 13.29L180.94 13.29C180.75 13.30 180.66 13.38 180.66 13.54L180.66 13.82L181.85 13.82L182.56 13.82L183.74 13.82L183.74 13.54C183.74 13.38 183.64 13.30 183.46 13.29L183.32 13.29C183.25 13.29 183.15 13.27 183.01 13.27C182.87 13.27 182.73 13.26 182.56 13.26L182.56 9.34L183.74 9.34C183.93 9.34 184.07 9.35 184.16 9.39C184.24 9.44 184.32 9.52 184.41 9.62L187.59 13.64C187.64 13.71 187.68 13.75 187.74 13.78C187.80 13.80 187.87 13.82 187.94 13.82L188.01 13.82L188.55 13.82L188.92 13.82L188.92 13.54C188.92 13.38 188.83 13.30 188.65 13.29ZM184.16 8.81L182.56 8.81L182.56 4.48L184.25 4.48C185.14 4.48 185.81 4.66 186.27 5.00C186.73 5.33 186.96 5.87 186.96 6.57C186.96 6.92 186.90 7.21 186.77 7.49C186.65 7.77 186.45 7.99 186.21 8.19C185.98 8.39 185.68 8.55 185.33 8.65C184.98 8.75 184.59 8.81 184.16 8.81ZM198.31 3.92L197.12 3.92L197.12 4.19C197.12 4.34 197.22 4.42 197.40 4.44L197.54 4.44C197.61 4.44 197.71 4.45 197.85 4.45C197.99 4.45 198.14 4.47 198.31 4.47L198.31 13.26C198.14 13.26 197.99 13.27 197.85 13.27C197.71 13.27 197.61 13.29 197.54 13.29L197.40 13.29C197.22 13.30 197.13 13.38 197.13 13.54L197.13 13.82L198.31 13.82L204.25 13.82L204.25 13.22L204.25 11.76L203.90 11.76C203.70 11.76 203.62 11.89 203.60 12.11C203.60 12.14 203.59 12.19 203.59 12.29C203.59 12.39 203.59 12.53 203.57 12.74C203.56 12.95 203.55 13.09 203.55 13.22L199.02 13.22L199.02 9.09L202.97 9.09L202.97 8.51L199.02 8.51L199.02 4.51L203.55 4.51C203.57 5.12 203.60 5.50 203.60 5.63C203.62 5.85 203.70 5.96 203.90 5.96L204.25 5.96L204.25 4.51L204.25 3.92ZM230.33 3.92L229.98 3.92L224.39 3.92L223.20 3.92L223.20 4.19C223.20 4.34 223.30 4.42 223.48 4.44L223.62 4.44C223.69 4.44 223.79 4.45 223.93 4.45C224.07 4.45 224.22 4.47 224.39 4.47L224.39 13.26C224.22 13.26 224.07 13.27 223.93 13.27C223.79 13.27 223.69 13.29 223.62 13.29L223.48 13.29C223.30 13.30 223.20 13.38 223.20 13.54L223.20 13.82L224.39 13.82L225.11 13.82L226.28 13.82L226.28 13.54C226.28 13.38 226.20 13.30 226.02 13.29L225.88 13.29C225.81 13.29 225.71 13.27 225.57 13.27C225.43 13.27 225.27 13.26 225.11 13.26L225.11 9.27L228.80 9.27L228.80 8.67L225.11 8.67L225.11 4.51L229.71 4.51C229.74 5.18 229.77 5.56 229.77 5.63C229.78 5.85 229.88 5.96 230.08 5.96L230.41 5.96L230.41 3.92ZM246.85 3.92L246.13 3.92L244.78 3.92L244.78 4.19C244.78 4.34 244.87 4.42 245.06 4.44L245.22 4.44C245.32 4.44 245.46 4.45 245.63 4.45C245.80 4.45 245.97 4.47 246.13 4.47L246.13 10.04C246.13 10.50 246.06 10.92 245.92 11.33C245.78 11.73 245.59 12.08 245.32 12.38C245.06 12.67 244.75 12.89 244.37 13.06C243.99 13.23 243.57 13.31 243.10 13.31C242.62 13.31 242.19 13.23 241.81 13.06C241.43 12.89 241.11 12.66 240.86 12.36C240.59 12.07 240.41 11.72 240.27 11.33C240.13 10.93 240.06 10.50 240.06 10.04L240.06 4.47C240.23 4.47 240.39 4.45 240.56 4.45C240.73 4.45 240.87 4.44 240.97 4.44L241.14 4.44C241.32 4.42 241.42 4.34 241.42 4.19L241.42 3.92L240.06 3.92L239.34 3.92L238.17 3.92L238.17 4.19C238.17 4.34 238.25 4.42 238.43 4.44L238.57 4.44C238.64 4.44 238.74 4.45 238.88 4.45C239.02 4.45 239.18 4.47 239.34 4.47L239.34 10.04C239.34 10.58 239.43 11.09 239.60 11.56C239.76 12.04 240.02 12.46 240.34 12.81C240.66 13.16 241.07 13.44 241.53 13.64C241.99 13.83 242.52 13.93 243.10 13.93C243.67 13.93 244.19 13.83 244.65 13.64C245.11 13.44 245.52 13.16 245.84 12.81C246.16 12.46 246.41 12.04 246.58 11.56C246.75 11.09 246.85 10.58 246.85 10.04L246.85 4.47C247.02 4.47 247.16 4.45 247.30 4.45C247.44 4.45 247.55 4.44 247.62 4.44L247.74 4.44C247.93 4.42 248.02 4.34 248.02 4.19L248.02 3.92ZM263.77 12.21C263.75 12.18 263.70 12.15 263.66 12.15C263.63 12.15 263.62 12.15 263.59 12.17C263.58 12.18 263.55 12.21 263.52 12.22C263.33 12.40 263.12 12.56 262.92 12.70C262.72 12.84 262.51 12.94 262.28 13.03C262.04 13.13 261.79 13.20 261.51 13.24C261.23 13.29 260.92 13.31 260.57 13.31C260.01 13.31 259.46 13.22 258.99 13.01C258.50 12.81 258.09 12.52 257.74 12.14C257.39 11.76 257.10 11.28 256.90 10.74C256.70 10.19 256.61 9.56 256.61 8.86C256.61 8.18 256.70 7.56 256.90 7.01C257.11 6.47 257.39 6.01 257.75 5.61C258.12 5.24 258.55 4.94 259.06 4.73C259.56 4.52 260.11 4.42 260.71 4.42C261.60 4.42 262.43 4.56 263.16 4.89C263.20 5.78 263.24 6.30 263.24 6.41C263.26 6.64 263.34 6.75 263.54 6.75L263.87 6.75L263.87 4.51C262.70 4.03 261.63 3.81 260.71 3.81C259.99 3.81 259.35 3.92 258.75 4.17C258.16 4.42 257.63 4.76 257.21 5.21C256.77 5.66 256.45 6.19 256.21 6.80C255.98 7.42 255.86 8.11 255.86 8.86C255.86 9.63 255.99 10.32 256.21 10.95C256.44 11.58 256.76 12.10 257.17 12.54C257.57 12.99 258.06 13.33 258.64 13.57C259.21 13.80 259.83 13.93 260.51 13.93C260.92 13.93 261.30 13.90 261.65 13.83C261.98 13.76 262.30 13.66 262.60 13.54C262.88 13.41 263.14 13.26 263.38 13.09C263.62 12.91 263.84 12.73 264.05 12.50ZM280.56 13.29L280.48 13.29L280.29 13.29C280.21 13.29 280.11 13.27 280.01 13.27L275.98 9.06C275.90 8.96 275.83 8.89 275.74 8.83C275.66 8.78 275.58 8.74 275.48 8.71C275.56 8.68 275.63 8.64 275.70 8.58C275.77 8.53 275.86 8.46 275.94 8.36L279.73 4.45L280 4.45C280.08 4.45 280.14 4.44 280.18 4.44L280.27 4.44C280.45 4.42 280.55 4.34 280.55 4.19L280.55 3.91L279.57 3.91L279.44 3.91L277.63 3.91L277.63 4.19C277.63 4.34 277.73 4.42 277.91 4.44L278.08 4.44C278.18 4.44 278.31 4.45 278.47 4.45L278.92 4.45L275.25 8.22C275.20 8.27 275.14 8.33 275.10 8.36C275.06 8.39 275.00 8.40 274.95 8.43C274.89 8.44 274.85 8.47 274.78 8.47C274.71 8.48 274.62 8.48 274.54 8.48L273.95 8.48L273.95 4.45C274.12 4.45 274.27 4.44 274.41 4.44C274.55 4.44 274.65 4.42 274.72 4.42L274.86 4.42C275.04 4.41 275.13 4.33 275.13 4.17L275.13 3.91L273.95 3.91L273.24 3.91L272.06 3.91L272.06 4.17C272.06 4.33 272.16 4.41 272.34 4.42L272.47 4.42C272.54 4.42 272.65 4.44 272.79 4.44C272.93 4.44 273.07 4.45 273.24 4.45L273.24 13.26C273.07 13.26 272.93 13.27 272.79 13.27C272.65 13.27 272.54 13.29 272.47 13.29L272.34 13.29C272.16 13.30 272.06 13.38 272.06 13.54L272.06 13.82L273.24 13.82L273.95 13.82L275.13 13.82L275.13 13.54C275.13 13.38 275.04 13.30 274.86 13.29L274.72 13.29C274.65 13.29 274.55 13.27 274.41 13.27C274.27 13.27 274.12 13.26 273.95 13.26L273.95 9.04L274.60 9.04C274.71 9.04 274.81 9.04 274.88 9.06C274.95 9.07 275.00 9.09 275.06 9.11C275.11 9.14 275.17 9.17 275.21 9.21C275.25 9.25 275.30 9.28 275.35 9.34L279.20 13.27C279.06 13.27 278.89 13.29 278.73 13.29L278.32 13.29L278.14 13.29C277.96 13.30 277.86 13.38 277.86 13.54L277.86 13.82L279.73 13.82L279.79 13.82L279.96 13.82L280.55 13.82L280.84 13.82L280.84 13.54C280.84 13.38 280.74 13.30 280.56 13.29ZM291.93 4.44C292.11 4.42 292.19 4.34 292.19 4.19L292.19 3.91L291.02 3.91L290.30 3.91L289.11 3.91L289.11 4.19C289.11 4.34 289.21 4.42 289.39 4.44L289.53 4.44C289.60 4.44 289.70 4.45 289.84 4.45C289.98 4.45 290.14 4.47 290.30 4.47L290.30 13.26C290.14 13.26 289.98 13.27 289.84 13.27C289.70 13.27 289.60 13.29 289.53 13.29L289.39 13.29C289.21 13.30 289.11 13.38 289.11 13.54L289.11 13.82L290.30 13.82L291.02 13.82L292.19 13.82L292.19 13.54C292.19 13.38 292.11 13.30 291.93 13.29L291.79 13.29C291.72 13.29 291.62 13.27 291.48 13.27C291.34 13.27 291.19 13.26 291.02 13.26L291.02 4.47C291.19 4.47 291.34 4.45 291.48 4.45C291.62 4.45 291.72 4.44 291.79 4.44ZM309.37 3.92L308.74 3.92L307.52 3.92L307.52 4.19C307.52 4.34 307.62 4.42 307.80 4.44L307.94 4.44C308.01 4.44 308.13 4.45 308.27 4.45C308.41 4.45 308.57 4.47 308.74 4.47L308.74 12.22C308.74 12.35 308.74 12.49 308.76 12.63L302.34 4.05C302.30 3.99 302.27 3.95 302.23 3.93C302.19 3.92 302.15 3.91 302.08 3.91L301.73 3.91L300.54 3.91L300.54 4.19C300.54 4.34 300.64 4.42 300.82 4.44L300.96 4.44C301.03 4.44 301.13 4.45 301.27 4.45C301.41 4.45 301.56 4.47 301.73 4.47L301.73 13.26C301.56 13.26 301.41 13.27 301.27 13.27C301.13 13.27 301.03 13.29 300.96 13.29L300.82 13.29C300.64 13.30 300.54 13.38 300.54 13.54L300.54 13.82L301.73 13.82L302.34 13.82L303.56 13.82L303.56 13.54C303.56 13.38 303.46 13.30 303.28 13.29L303.14 13.29C303.07 13.29 302.95 13.27 302.81 13.27C302.67 13.27 302.51 13.26 302.34 13.26L302.34 5.49C302.34 5.36 302.34 5.22 302.33 5.08L308.77 13.68C308.84 13.78 308.91 13.82 309.02 13.82L309.37 13.82L309.37 4.47C309.54 4.47 309.68 4.45 309.82 4.45C309.96 4.45 310.07 4.44 310.14 4.44L310.27 4.44C310.45 4.42 310.55 4.34 310.55 4.19L310.55 3.92ZM324.23 9.32L324.23 9.72C324.23 9.76 324.25 9.80 324.28 9.83C324.31 9.86 324.35 9.87 324.41 9.87L326.31 9.87L326.31 12.54C326.09 12.67 325.86 12.78 325.65 12.88C325.44 12.98 325.21 13.08 324.97 13.15C324.73 13.22 324.46 13.27 324.18 13.30C323.90 13.33 323.60 13.34 323.26 13.34C322.64 13.34 322.08 13.24 321.58 13.03C321.08 12.82 320.64 12.53 320.28 12.15C319.91 11.77 319.63 11.30 319.44 10.74C319.24 10.18 319.13 9.56 319.13 8.86C319.13 8.18 319.24 7.56 319.44 7.01C319.63 6.47 319.91 5.99 320.28 5.61C320.64 5.24 321.09 4.94 321.61 4.73C322.13 4.52 322.70 4.42 323.34 4.42C324.52 4.42 325.46 4.58 326.14 4.90C326.19 5.81 326.21 6.31 326.21 6.41C326.23 6.64 326.33 6.75 326.52 6.75L326.86 6.75L326.86 4.51C326.42 4.31 325.86 4.14 325.16 4.00C324.46 3.86 323.88 3.81 323.37 3.81C322.62 3.81 321.93 3.92 321.31 4.16C320.70 4.40 320.18 4.75 319.75 5.18C319.31 5.61 318.99 6.15 318.75 6.78C318.51 7.39 318.40 8.09 318.40 8.86C318.40 9.63 318.51 10.32 318.75 10.95C318.99 11.58 319.31 12.10 319.73 12.54C320.15 12.99 320.67 13.33 321.26 13.57C321.85 13.80 322.49 13.93 323.20 13.93C323.62 13.93 324.00 13.90 324.35 13.86C324.70 13.80 325.02 13.73 325.33 13.65C325.64 13.55 325.92 13.44 326.19 13.30C326.45 13.16 326.70 13.01 326.96 12.84L326.96 9.32ZM355.00 8.86C355.00 8.11 354.87 7.41 354.65 6.79C354.42 6.17 354.10 5.64 353.68 5.19C353.26 4.75 352.77 4.40 352.20 4.16C351.62 3.92 350.97 3.79 350.27 3.79C349.57 3.79 348.94 3.92 348.36 4.16C347.79 4.40 347.28 4.75 346.86 5.19C346.44 5.64 346.12 6.17 345.90 6.79C345.67 7.41 345.55 8.11 345.55 8.86C345.55 9.63 345.67 10.33 345.90 10.95C346.12 11.56 346.44 12.10 346.86 12.54C347.28 12.99 347.79 13.33 348.36 13.57C348.94 13.80 349.57 13.93 350.27 13.93C350.97 13.93 351.62 13.80 352.20 13.57C352.77 13.33 353.26 12.99 353.68 12.54C354.10 12.10 354.42 11.56 354.65 10.95C354.87 10.33 355.00 9.63 355.00 8.86ZM354.24 8.86C354.24 9.56 354.16 10.18 353.96 10.72C353.77 11.27 353.50 11.75 353.15 12.12C352.80 12.50 352.38 12.81 351.89 13.01C351.40 13.20 350.87 13.30 350.27 13.30C349.68 13.30 349.15 13.20 348.66 13.01C348.17 12.81 347.75 12.50 347.40 12.12C347.05 11.75 346.77 11.27 346.57 10.72C346.37 10.18 346.29 9.56 346.29 8.86C346.29 8.18 346.37 7.55 346.57 7.00C346.77 6.45 347.05 5.98 347.40 5.60C347.75 5.22 348.17 4.91 348.66 4.72C349.15 4.52 349.68 4.41 350.27 4.41C350.87 4.41 351.40 4.52 351.89 4.72C352.38 4.91 352.80 5.22 353.15 5.60C353.50 5.98 353.77 6.45 353.96 7.00C354.16 7.55 354.24 8.18 354.24 8.86ZM369.64 11.97C369.45 11.97 369.36 12.08 369.35 12.31C369.35 12.32 369.35 12.38 369.33 12.43C369.32 12.49 369.32 12.59 369.31 12.71C369.29 12.84 369.28 13.01 369.26 13.20L365.18 13.20L365.18 4.47C365.34 4.47 365.48 4.45 365.62 4.45C365.76 4.45 365.88 4.44 365.95 4.44L366.07 4.44C366.25 4.42 366.35 4.34 366.35 4.19L366.35 3.92L365.18 3.92L364.46 3.92L363.27 3.92L363.27 4.19C363.27 4.34 363.37 4.42 363.55 4.44L363.69 4.44C363.76 4.44 363.86 4.45 364 4.45C364.14 4.45 364.29 4.47 364.46 4.47L364.46 13.26C364.29 13.26 364.14 13.27 364 13.27C363.86 13.27 363.76 13.29 363.69 13.29L363.55 13.29C363.37 13.30 363.27 13.38 363.27 13.54L363.27 13.82L364.46 13.82L369.74 13.82L369.87 13.82L369.99 13.82L369.99 13.55L369.99 12.99L369.99 11.97L369.71 11.97ZM387.42 6.80C387.20 6.19 386.88 5.68 386.46 5.25C386.04 4.82 385.55 4.48 384.97 4.26C384.40 4.03 383.74 3.92 383.04 3.92L379.61 3.92L378.42 3.92L378.42 4.19C378.42 4.34 378.52 4.42 378.70 4.44L378.84 4.44C378.91 4.44 379.01 4.45 379.15 4.45C379.29 4.45 379.44 4.47 379.61 4.47L379.61 13.26C379.44 13.26 379.29 13.27 379.15 13.27C379.01 13.27 378.91 13.29 378.84 13.29L378.70 13.29C378.52 13.30 378.42 13.38 378.42 13.54L378.42 13.82L379.61 13.82L383.04 13.82C383.74 13.82 384.40 13.71 384.97 13.48C385.55 13.26 386.04 12.92 386.46 12.49C386.88 12.05 387.20 11.54 387.42 10.92C387.65 10.30 387.77 9.63 387.77 8.86C387.77 8.11 387.65 7.42 387.42 6.80ZM386.74 10.72C386.54 11.27 386.29 11.72 385.94 12.10C385.59 12.47 385.17 12.75 384.68 12.95C384.19 13.15 383.64 13.24 383.04 13.24L380.32 13.24L380.32 4.49L383.04 4.49C383.64 4.49 384.19 4.59 384.68 4.79C385.17 4.98 385.59 5.26 385.94 5.64C386.29 6.02 386.54 6.47 386.74 7.01C386.93 7.56 387.03 8.18 387.03 8.86C387.03 9.56 386.93 10.18 386.74 10.72ZM395.93 13.29C395.93 13.47 395.99 13.61 396.12 13.73C396.24 13.86 396.40 13.93 396.58 13.93C396.66 13.93 396.75 13.90 396.83 13.87C396.91 13.85 396.97 13.79 397.03 13.73C397.08 13.68 397.14 13.62 397.17 13.54C397.19 13.45 397.22 13.38 397.22 13.29C397.22 13.20 397.19 13.12 397.17 13.03C397.14 12.95 397.08 12.88 397.03 12.82C396.97 12.77 396.91 12.71 396.83 12.68C396.75 12.66 396.66 12.63 396.58 12.63C396.48 12.63 396.40 12.66 396.31 12.68C396.23 12.71 396.17 12.77 396.12 12.82C396.06 12.88 396.00 12.95 395.98 13.03C395.95 13.12 395.93 13.20 395.93 13.29Z"></path></g></svg>